<mxfile host="app.diagrams.net" modified="2024-04-24T10:04:12.543Z" agent="Mozilla/5.0 (X11; Linux x86_64; rv:125.0) Gecko/20100101 Firefox/125.0" version="24.2.8" etag="FnCLT_wUxqnFZIOyjq8E" type="github">
  <diagram name="Page-1" id="QmZlAlsnhDG33eca_nTH">
    <mxGraphModel>
      <root>
        <mxCell id="0" />
        <mxCell id="1" parent="0" />
      </root>
    </mxGraphModel>
  </diagram>
</mxfile>
